<svg width="41" height="41" viewBox="0 0 41 41" fill="none" xmlns="http://www.w3.org/2000/svg">
<path fill-rule="evenodd" clip-rule="evenodd" d="M20.1015 40.0114C31.1473 40.0114 40.1015 31.0571 40.1015 20.0114C40.1015 8.96577 31.1473 0.0114746 20.1015 0.0114746C9.05585 0.0114746 0.101562 8.96577 0.101562 20.0114C0.101562 31.0571 9.05585 40.0114 20.1015 40.0114ZM23.1885 15.464C24.8933 13.7591 24.8933 10.995 23.1885 9.29013C21.4836 7.58525 18.7195 7.58525 17.0146 9.29013C15.3098 10.995 15.3098 13.7591 17.0146 15.464L20.1015 18.5509L23.1885 15.464ZM24.649 23.0984C26.3539 24.8033 29.118 24.8033 30.8229 23.0984C32.5277 21.3935 32.5277 18.6294 30.8229 16.9245C29.118 15.2197 26.3539 15.2197 24.649 16.9245L21.5621 20.0115L24.649 23.0984ZM23.1885 30.7328C24.8933 29.0279 24.8933 26.2638 23.1885 24.5589L20.1015 21.472L17.0146 24.5589C15.3098 26.2638 15.3098 29.0279 17.0146 30.7328C18.7195 32.4377 21.4836 32.4377 23.1885 30.7328ZM9.38019 23.0984C7.67535 21.3935 7.67535 18.6294 9.38019 16.9245C11.0851 15.2197 13.8492 15.2197 15.5541 16.9245L18.641 20.0115L15.5541 23.0984C13.8492 24.8033 11.0851 24.8033 9.38019 23.0984Z" fill="#7F57F1"/>
</svg>
